<mxfile host="app.diagrams.net" modified="2024-01-23T17:08:10.342Z" agent="Mozilla/5.0 (Windows NT 10.0; Win64; x64) AppleWebKit/537.36 (KHTML, like Gecko) Chrome/120.0.0.0 Safari/537.36 Edg/120.0.0.0" etag="Mc6KBbaYoYySeErMenCG" version="22.1.22" type="github">
  <diagram name="Page-1" id="wrgrO_Fl_skDyomM86E3">
    <mxGraphModel dx="1386" dy="803" grid="1" gridSize="10" guides="1" tooltips="1" connect="1" arrows="1" fold="1" page="1" pageScale="1" pageWidth="827" pageHeight="1169" math="0" shadow="0">
      <root>
        <mxCell id="0" />
        <mxCell id="1" parent="0" />
        <mxCell id="NGBfWOmiW9GpRt6J7B4n-8" style="edgeStyle=orthogonalEdgeStyle;rounded=0;orthogonalLoop=1;jettySize=auto;html=1;exitX=1;exitY=0.5;exitDx=0;exitDy=0;entryX=0;entryY=0.5;entryDx=0;entryDy=0;" edge="1" parent="1" source="NGBfWOmiW9GpRt6J7B4n-1" target="NGBfWOmiW9GpRt6J7B4n-5">
          <mxGeometry relative="1" as="geometry" />
        </mxCell>
        <mxCell id="NGBfWOmiW9GpRt6J7B4n-1" value="&lt;font style=&quot;font-size: 29px;&quot;&gt;INIT&lt;/font&gt;" style="ellipse;whiteSpace=wrap;html=1;aspect=fixed;" vertex="1" parent="1">
          <mxGeometry x="150" y="130" width="120" height="120" as="geometry" />
        </mxCell>
        <mxCell id="NGBfWOmiW9GpRt6J7B4n-15" style="edgeStyle=orthogonalEdgeStyle;rounded=0;orthogonalLoop=1;jettySize=auto;html=1;exitX=1;exitY=1;exitDx=0;exitDy=0;curved=1;" edge="1" parent="1" source="NGBfWOmiW9GpRt6J7B4n-5" target="NGBfWOmiW9GpRt6J7B4n-7">
          <mxGeometry relative="1" as="geometry" />
        </mxCell>
        <mxCell id="NGBfWOmiW9GpRt6J7B4n-16" value="BAP" style="edgeLabel;html=1;align=center;verticalAlign=middle;resizable=0;points=[];" vertex="1" connectable="0" parent="NGBfWOmiW9GpRt6J7B4n-15">
          <mxGeometry x="0.0407" y="6" relative="1" as="geometry">
            <mxPoint as="offset" />
          </mxGeometry>
        </mxCell>
        <mxCell id="NGBfWOmiW9GpRt6J7B4n-17" value="&lt;font style=&quot;font-size: 19px;&quot;&gt;BAP&lt;br&gt;&lt;/font&gt;" style="edgeLabel;html=1;align=center;verticalAlign=middle;resizable=0;points=[];" vertex="1" connectable="0" parent="NGBfWOmiW9GpRt6J7B4n-15">
          <mxGeometry x="0.0496" y="4" relative="1" as="geometry">
            <mxPoint as="offset" />
          </mxGeometry>
        </mxCell>
        <mxCell id="NGBfWOmiW9GpRt6J7B4n-5" value="&lt;font style=&quot;font-size: 29px;&quot;&gt;FP&lt;/font&gt;" style="ellipse;whiteSpace=wrap;html=1;aspect=fixed;" vertex="1" parent="1">
          <mxGeometry x="440" y="130" width="120" height="120" as="geometry" />
        </mxCell>
        <mxCell id="NGBfWOmiW9GpRt6J7B4n-6" value="&lt;font style=&quot;font-size: 29px;&quot;&gt;FS&lt;/font&gt;" style="ellipse;whiteSpace=wrap;html=1;aspect=fixed;" vertex="1" parent="1">
          <mxGeometry x="170" y="430" width="120" height="120" as="geometry" />
        </mxCell>
        <mxCell id="NGBfWOmiW9GpRt6J7B4n-7" value="&lt;font style=&quot;font-size: 29px;&quot;&gt;FPTP&lt;/font&gt;" style="ellipse;whiteSpace=wrap;html=1;aspect=fixed;" vertex="1" parent="1">
          <mxGeometry x="560" y="430" width="120" height="120" as="geometry" />
        </mxCell>
        <mxCell id="NGBfWOmiW9GpRt6J7B4n-9" style="edgeStyle=orthogonalEdgeStyle;rounded=0;orthogonalLoop=1;jettySize=auto;html=1;exitX=0.042;exitY=0.708;exitDx=0;exitDy=0;entryX=0.6;entryY=0.017;entryDx=0;entryDy=0;entryPerimeter=0;curved=1;exitPerimeter=0;" edge="1" parent="1" source="NGBfWOmiW9GpRt6J7B4n-5" target="NGBfWOmiW9GpRt6J7B4n-6">
          <mxGeometry relative="1" as="geometry">
            <mxPoint x="440.00359312880704" y="227.38640687119297" as="sourcePoint" />
            <mxPoint x="249.46999999999997" y="429.99999999999994" as="targetPoint" />
          </mxGeometry>
        </mxCell>
        <mxCell id="NGBfWOmiW9GpRt6J7B4n-10" style="edgeStyle=orthogonalEdgeStyle;rounded=0;orthogonalLoop=1;jettySize=auto;html=1;exitX=1;exitY=0;exitDx=0;exitDy=0;entryX=0.35;entryY=0.983;entryDx=0;entryDy=0;entryPerimeter=0;curved=1;" edge="1" parent="1" source="NGBfWOmiW9GpRt6J7B4n-6" target="NGBfWOmiW9GpRt6J7B4n-5">
          <mxGeometry relative="1" as="geometry" />
        </mxCell>
        <mxCell id="NGBfWOmiW9GpRt6J7B4n-11" style="edgeStyle=orthogonalEdgeStyle;rounded=0;orthogonalLoop=1;jettySize=auto;html=1;exitX=1;exitY=1;exitDx=0;exitDy=0;entryX=0.067;entryY=0.717;entryDx=0;entryDy=0;entryPerimeter=0;curved=1;" edge="1" parent="1" source="NGBfWOmiW9GpRt6J7B4n-6" target="NGBfWOmiW9GpRt6J7B4n-7">
          <mxGeometry relative="1" as="geometry">
            <Array as="points">
              <mxPoint x="400" y="532" />
              <mxPoint x="400" y="516" />
            </Array>
          </mxGeometry>
        </mxCell>
        <mxCell id="NGBfWOmiW9GpRt6J7B4n-12" value="&lt;font style=&quot;font-size: 20px;&quot;&gt;BAP&lt;/font&gt;" style="edgeLabel;html=1;align=center;verticalAlign=middle;resizable=0;points=[];" vertex="1" connectable="0" parent="NGBfWOmiW9GpRt6J7B4n-11">
          <mxGeometry x="-0.0873" y="3" relative="1" as="geometry">
            <mxPoint as="offset" />
          </mxGeometry>
        </mxCell>
        <mxCell id="NGBfWOmiW9GpRt6J7B4n-24" value="" style="endArrow=classic;html=1;rounded=0;" edge="1" parent="1" target="NGBfWOmiW9GpRt6J7B4n-1">
          <mxGeometry width="50" height="50" relative="1" as="geometry">
            <mxPoint x="50" y="90" as="sourcePoint" />
            <mxPoint x="440" y="370" as="targetPoint" />
          </mxGeometry>
        </mxCell>
        <mxCell id="NGBfWOmiW9GpRt6J7B4n-25" value="&lt;font style=&quot;font-size: 21px;&quot;&gt;BI&lt;/font&gt;" style="edgeLabel;html=1;align=center;verticalAlign=middle;resizable=0;points=[];" vertex="1" connectable="0" parent="NGBfWOmiW9GpRt6J7B4n-24">
          <mxGeometry x="0.374" y="-4" relative="1" as="geometry">
            <mxPoint x="-22" y="-20" as="offset" />
          </mxGeometry>
        </mxCell>
        <mxCell id="NGBfWOmiW9GpRt6J7B4n-27" value="" style="endArrow=classic;html=1;rounded=0;exitX=0.067;exitY=0.275;exitDx=0;exitDy=0;exitPerimeter=0;entryX=0.625;entryY=1.017;entryDx=0;entryDy=0;entryPerimeter=0;" edge="1" parent="1" source="NGBfWOmiW9GpRt6J7B4n-7" target="NGBfWOmiW9GpRt6J7B4n-5">
          <mxGeometry width="50" height="50" relative="1" as="geometry">
            <mxPoint x="390" y="410" as="sourcePoint" />
            <mxPoint x="440" y="360" as="targetPoint" />
          </mxGeometry>
        </mxCell>
        <mxCell id="NGBfWOmiW9GpRt6J7B4n-31" value="&lt;font style=&quot;font-size: 18px;&quot;&gt;Next_State = FP&lt;/font&gt;" style="edgeLabel;html=1;align=center;verticalAlign=middle;resizable=0;points=[];" vertex="1" connectable="0" parent="NGBfWOmiW9GpRt6J7B4n-27">
          <mxGeometry x="-0.4424" y="-1" relative="1" as="geometry">
            <mxPoint x="-14" y="-24" as="offset" />
          </mxGeometry>
        </mxCell>
        <mxCell id="NGBfWOmiW9GpRt6J7B4n-28" value="" style="endArrow=classic;html=1;rounded=0;exitX=0.175;exitY=0.925;exitDx=0;exitDy=0;exitPerimeter=0;entryX=0.683;entryY=0.975;entryDx=0;entryDy=0;entryPerimeter=0;" edge="1" parent="1" source="NGBfWOmiW9GpRt6J7B4n-7" target="NGBfWOmiW9GpRt6J7B4n-6">
          <mxGeometry width="50" height="50" relative="1" as="geometry">
            <mxPoint x="513" y="796" as="sourcePoint" />
            <mxPoint x="460" y="585" as="targetPoint" />
          </mxGeometry>
        </mxCell>
        <mxCell id="NGBfWOmiW9GpRt6J7B4n-30" value="&lt;font style=&quot;font-size: 18px;&quot;&gt;Next_State = FS&lt;/font&gt;" style="edgeLabel;html=1;align=center;verticalAlign=middle;resizable=0;points=[];" vertex="1" connectable="0" parent="NGBfWOmiW9GpRt6J7B4n-28">
          <mxGeometry x="-0.3434" y="1" relative="1" as="geometry">
            <mxPoint as="offset" />
          </mxGeometry>
        </mxCell>
      </root>
    </mxGraphModel>
  </diagram>
</mxfile>
